<?xml version="1.0" encoding="UTF-8" standalone="no"?>
<!-- Generator: Adobe Illustrator 16.0.0, SVG Export Plug-In . SVG Version: 6.00 Build 0)  -->

<svg
   xmlns:dc="http://purl.org/dc/elements/1.1/"
   xmlns:cc="http://creativecommons.org/ns#"
   xmlns:rdf="http://www.w3.org/1999/02/22-rdf-syntax-ns#"
   xmlns:svg="http://www.w3.org/2000/svg"
   xmlns="http://www.w3.org/2000/svg"
   xmlns:sodipodi="http://sodipodi.sourceforge.net/DTD/sodipodi-0.dtd"
   xmlns:inkscape="http://www.inkscape.org/namespaces/inkscape"
   version="1.1"
   id="Layer_1"
   x="0px"
   y="0px"
   width="296.167px"
   height="677px"
   viewBox="0 0 296.167 677"
   enable-background="new 0 0 296.167 677"
   xml:space="preserve"
   inkscape:version="0.48.4 r9939"
   sodipodi:docname="floor_svg.svg"
   inkscape:export-filename="/home/valter/catkin_ws/src/conde_world/models/conde_world/materials/textures/floor1.png"
   inkscape:export-xdpi="800"
   inkscape:export-ydpi="800"><metadata
     id="metadata263"><rdf:RDF><cc:Work
         rdf:about=""><dc:format>image/svg+xml</dc:format><dc:type
           rdf:resource="http://purl.org/dc/dcmitype/StillImage" /><dc:title></dc:title></cc:Work></rdf:RDF></metadata><defs
     id="defs261" /><sodipodi:namedview
     pagecolor="#ffffff"
     bordercolor="#666666"
     borderopacity="1"
     objecttolerance="10"
     gridtolerance="10"
     guidetolerance="10"
     inkscape:pageopacity="0"
     inkscape:pageshadow="2"
     inkscape:window-width="1882"
     inkscape:window-height="1062"
     id="namedview259"
     showgrid="false"
     inkscape:zoom="0.9859805"
     inkscape:cx="323.24991"
     inkscape:cy="375.10057"
     inkscape:window-x="38"
     inkscape:window-y="0"
     inkscape:window-maximized="1"
     inkscape:current-layer="Layer_1" /><rect
     width="359.17099"
     height="821.0191"
     id="rect3"
     x="0"
     y="-144.01907" /><g
     id="g5"
     transform="matrix(1.2153836,0,0,1.2153836,-0.36378293,-145.49379)"><rect
       x="197.543"
       y="328.229"
       width="52.487"
       height="4.0380001"
       id="rect7"
       style="fill:#ffffff" /><rect
       x="197.543"
       y="334.284"
       width="4.0380001"
       height="12.112"
       id="rect9"
       style="fill:#ffffff" /><rect
       x="205.618"
       y="334.284"
       width="4.0380001"
       height="12.112"
       id="rect11"
       style="fill:#ffffff" /><rect
       x="213.69299"
       y="334.284"
       width="4.0380001"
       height="12.112"
       id="rect13"
       style="fill:#ffffff" /><rect
       x="221.76801"
       y="334.284"
       width="4.0380001"
       height="12.112"
       id="rect15"
       style="fill:#ffffff" /><rect
       x="229.843"
       y="334.284"
       width="4.0380001"
       height="12.112"
       id="rect17"
       style="fill:#ffffff" /><rect
       x="237.918"
       y="334.284"
       width="4.0380001"
       height="12.112"
       id="rect19"
       style="fill:#ffffff" /><rect
       x="245.994"
       y="334.284"
       width="4.0380001"
       height="12.112"
       id="rect21"
       style="fill:#ffffff" /><rect
       x="197.543"
       y="348.418"
       width="52.487"
       height="4.0370002"
       id="rect23"
       style="fill:#ffffff" /><rect
       x="222.77901"
       y="356.491"
       width="2.02"
       height="8.0740004"
       id="rect25"
       style="fill:#ffffff" /><rect
       x="222.77901"
       y="370.62201"
       width="2.02"
       height="8.0749998"
       id="rect27"
       style="fill:#ffffff" /><rect
       x="222.77901"
       y="384.754"
       width="2.02"
       height="8.0740004"
       id="rect29"
       style="fill:#ffffff" /><rect
       x="222.77901"
       y="398.88501"
       width="2.02"
       height="8.0749998"
       id="rect31"
       style="fill:#ffffff" /><rect
       x="222.77901"
       y="413.017"
       width="2.02"
       height="8.0740004"
       id="rect33"
       style="fill:#ffffff" /><rect
       x="222.77901"
       y="427.14801"
       width="2.02"
       height="8.0749998"
       id="rect35"
       style="fill:#ffffff" /><rect
       x="222.77901"
       y="441.27899"
       width="2.02"
       height="8.0749998"
       id="rect37"
       style="fill:#ffffff" /><rect
       x="222.77901"
       y="455.41"
       width="2.02"
       height="8.0749998"
       id="rect39"
       style="fill:#ffffff" /><rect
       x="222.77901"
       y="469.54199"
       width="2.02"
       height="8.0740004"
       id="rect41"
       style="fill:#ffffff" /><rect
       x="222.77901"
       y="483.67401"
       width="2.02"
       height="8.0749998"
       id="rect43"
       style="fill:#ffffff" /><rect
       x="222.77901"
       y="497.80499"
       width="2.02"
       height="8.0749998"
       id="rect45"
       style="fill:#ffffff" /><rect
       x="222.77901"
       y="511.93701"
       width="2.02"
       height="8.0749998"
       id="rect47"
       style="fill:#ffffff" /><rect
       x="222.77901"
       y="526.06799"
       width="2.02"
       height="8.0740004"
       id="rect49"
       style="fill:#ffffff" /><rect
       x="222.77901"
       y="318.134"
       width="2.02"
       height="8.0749998"
       id="rect51"
       style="fill:#ffffff" /><rect
       x="222.77901"
       y="303.10599"
       width="2.02"
       height="8.0749998"
       id="rect53"
       style="fill:#ffffff" /><rect
       x="222.77901"
       y="286.362"
       width="2.02"
       height="8.0760002"
       id="rect55"
       style="fill:#ffffff" /><rect
       x="222.77901"
       y="274.84399"
       width="2.02"
       height="8.0749998"
       id="rect57"
       style="fill:#ffffff" /><rect
       x="222.77901"
       y="260.71201"
       width="2.02"
       height="8.0749998"
       id="rect59"
       style="fill:#ffffff" /><rect
       x="222.77901"
       y="246.58"
       width="2.02"
       height="8.0760002"
       id="rect61"
       style="fill:#ffffff" /><rect
       x="222.77901"
       y="232.44901"
       width="2.02"
       height="8.0760002"
       id="rect63"
       style="fill:#ffffff" /><rect
       x="222.77901"
       y="218.317"
       width="2.02"
       height="8.0760002"
       id="rect65"
       style="fill:#ffffff" /><rect
       x="222.77901"
       y="204.187"
       width="2.02"
       height="8.0749998"
       id="rect67"
       style="fill:#ffffff" /><rect
       x="222.77901"
       y="190.05499"
       width="2.02"
       height="8.0749998"
       id="rect69"
       style="fill:#ffffff" /><rect
       x="222.77901"
       y="175.924"
       width="2.02"
       height="8.0749998"
       id="rect71"
       style="fill:#ffffff" /><rect
       x="222.77901"
       y="161.79201"
       width="2.02"
       height="8.0749998"
       id="rect73"
       style="fill:#ffffff" /><rect
       x="222.77901"
       y="147.661"
       width="2.02"
       height="8.0749998"
       id="rect75"
       style="fill:#ffffff" /><rect
       x="222.77499"
       y="134.533"
       width="2.02"
       height="8.0749998"
       id="rect77"
       style="fill:#ffffff" /><path
       d="m 221.303,116.557 c 0.669,-0.068 1.339,-0.136 2.008,-0.203 0.272,2.678 0.545,5.356 0.815,8.033 -0.669,0.068 -1.339,0.136 -2.008,0.204 -0.272,-2.678 -0.542,-5.356 -0.815,-8.034 z"
       id="path79"
       inkscape:connector-curvature="0"
       style="fill:#ffffff" /><path
       d="m 217.341,103.116 c 0.643,-0.2 1.285,-0.399 1.927,-0.598 0.799,2.57 1.597,5.141 2.395,7.711 -0.643,0.2 -1.285,0.4 -1.928,0.599 -0.799,-2.571 -1.597,-5.142 -2.394,-7.712 z"
       id="path81"
       inkscape:connector-curvature="0"
       style="fill:#ffffff" /><path
       d="m 211.551,90.329 c 0.606,-0.292 1.214,-0.584 1.819,-0.875 1.166,2.426 2.332,4.852 3.498,7.278 -0.605,0.291 -1.213,0.583 -1.819,0.875 -1.166,-2.426 -2.331,-4.853 -3.498,-7.278 z"
       id="path83"
       inkscape:connector-curvature="0"
       style="fill:#ffffff" /><path
       d="m 203.883,78.565 c 0.559,-0.376 1.117,-0.752 1.675,-1.128 1.503,2.233 3.008,4.465 4.512,6.697 -0.559,0.376 -1.116,0.752 -1.675,1.128 -1.504,-2.232 -3.008,-4.465 -4.512,-6.697 z"
       id="path85"
       inkscape:connector-curvature="0"
       style="fill:#ffffff" /><path
       d="m 194.524,68.09 c 0.499,-0.451 0.996,-0.903 1.495,-1.355 1.809,1.995 3.615,3.989 5.423,5.984 -0.498,0.451 -0.997,0.904 -1.496,1.356 -1.808,-1.995 -3.615,-3.99 -5.422,-5.985 z"
       id="path87"
       inkscape:connector-curvature="0"
       style="fill:#ffffff" /><path
       d="m 183.688,59.145 c 0.429,-0.519 0.857,-1.038 1.286,-1.556 2.073,1.716 4.147,3.433 6.221,5.149 -0.43,0.519 -0.858,1.037 -1.287,1.555 -2.075,-1.716 -4.148,-3.432 -6.22,-5.148 z"
       id="path89"
       inkscape:connector-curvature="0"
       style="fill:#ffffff" /><path
       d="m 171.616,51.941 c 0.35,-0.575 0.7,-1.15 1.051,-1.724 2.298,1.4 4.597,2.801 6.896,4.201 -0.352,0.575 -0.701,1.15 -1.052,1.724 -2.299,-1.4 -4.596,-2.801 -6.895,-4.201 z"
       id="path91"
       inkscape:connector-curvature="0"
       style="fill:#ffffff" /><path
       d="m 158.55,46.876 c 0.232,-0.631 0.464,-1.264 0.696,-1.895 2.527,0.927 5.054,1.854 7.581,2.781 -0.232,0.632 -0.464,1.264 -0.696,1.896 -2.527,-0.928 -5.053,-1.855 -7.581,-2.782 z"
       id="path93"
       inkscape:connector-curvature="0"
       style="fill:#ffffff" /><path
       d="m 144.882,43.697 c 0.134,-0.659 0.271,-1.318 0.405,-1.977 2.637,0.54 5.273,1.08 7.91,1.621 -0.135,0.659 -0.271,1.318 -0.405,1.977 -2.636,-0.54 -5.274,-1.08 -7.91,-1.621 z"
       id="path95"
       inkscape:connector-curvature="0"
       style="fill:#ffffff" /><path
       d="m 130.888,42.645 c 0.034,-0.672 0.069,-1.344 0.103,-2.016 2.688,0.136 5.375,0.272 8.064,0.409 -0.034,0.672 -0.068,1.344 -0.103,2.016 -2.688,-0.137 -5.375,-0.273 -8.064,-0.409 z"
       id="path97"
       inkscape:connector-curvature="0"
       style="fill:#ffffff" /><path
       d="m 116.896,43.707 c -0.068,-0.67 -0.135,-1.339 -0.203,-2.008 2.678,-0.272 5.356,-0.543 8.034,-0.814 0.067,0.669 0.136,1.339 0.203,2.008 -2.679,0.272 -5.356,0.543 -8.034,0.814 z"
       id="path99"
       inkscape:connector-curvature="0"
       style="fill:#ffffff" /><path
       d="m 103.225,46.879 c -0.167,-0.652 -0.335,-1.304 -0.502,-1.956 2.607,-0.669 5.215,-1.338 7.822,-2.007 0.167,0.652 0.335,1.304 0.502,1.955 -2.608,0.669 -5.215,1.338 -7.822,2.008 z"
       id="path101"
       inkscape:connector-curvature="0"
       style="fill:#ffffff" /><path
       d="m 90.193,52.101 c -0.261,-0.62 -0.523,-1.24 -0.784,-1.86 2.48,-1.046 4.96,-2.092 7.44,-3.138 0.262,0.62 0.524,1.24 0.785,1.86 -2.48,1.046 -4.96,2.092 -7.441,3.138 z"
       id="path103"
       inkscape:connector-curvature="0"
       style="fill:#ffffff" /><path
       d="m 78.104,59.248 c -0.349,-0.576 -0.697,-1.152 -1.045,-1.727 2.302,-1.394 4.604,-2.789 6.907,-4.184 0.348,0.576 0.696,1.152 1.045,1.727 -2.302,1.395 -4.603,2.79 -6.907,4.184 z"
       id="path105"
       inkscape:connector-curvature="0"
       style="fill:#ffffff" /><path
       d="m 67.23,68.144 c -0.427,-0.52 -0.855,-1.039 -1.282,-1.559 2.079,-1.71 4.158,-3.42 6.236,-5.13 0.428,0.52 0.855,1.04 1.283,1.559 -2.078,1.71 -4.157,3.42 -6.237,5.13 z"
       id="path107"
       inkscape:connector-curvature="0"
       style="fill:#ffffff" /><path
       d="m 57.818,78.582 c -0.497,-0.453 -0.995,-0.907 -1.492,-1.36 1.814,-1.989 3.628,-3.978 5.442,-5.967 0.497,0.454 0.994,0.907 1.491,1.361 -1.814,1.989 -3.627,3.977 -5.441,5.966 z"
       id="path109"
       inkscape:connector-curvature="0"
       style="fill:#ffffff" /><path
       d="m 50.089,90.329 c -0.557,-0.378 -1.114,-0.756 -1.671,-1.133 1.51,-2.229 3.02,-4.456 4.53,-6.684 0.557,0.377 1.114,0.755 1.671,1.132 -1.51,2.229 -3.019,4.456 -4.53,6.685 z"
       id="path111"
       inkscape:connector-curvature="0"
       style="fill:#ffffff" /><path
       d="m 44.468,103.17 c -0.62,-0.263 -1.239,-0.525 -1.858,-0.788 1.051,-2.478 2.102,-4.956 3.152,-7.434 0.62,0.263 1.24,0.525 1.859,0.788 -1.051,2.478 -2.101,4.956 -3.153,7.434 z"
       id="path113"
       inkscape:connector-curvature="0"
       style="fill:#ffffff" /><path
       d="m 40.688,116.688 c -0.651,-0.168 -1.303,-0.336 -1.955,-0.504 0.672,-2.607 1.345,-5.213 2.017,-7.819 0.651,0.168 1.303,0.336 1.955,0.504 -0.672,2.606 -1.346,5.213 -2.017,7.819 z"
       id="path115"
       inkscape:connector-curvature="0"
       style="fill:#ffffff" /><path
       d="m 39.024,130.626 c -0.67,-0.069 -1.339,-0.137 -2.009,-0.205 0.273,-2.678 0.546,-5.356 0.819,-8.034 0.669,0.069 1.339,0.137 2.008,0.205 -0.272,2.678 -0.546,5.356 -0.818,8.034 z"
       id="path117"
       inkscape:connector-curvature="0"
       style="fill:#ffffff" /><path
       d="m 39.486,144.654 c -0.672,0.034 -1.345,0.068 -2.016,0.101 -0.136,-2.688 -0.271,-5.376 -0.406,-8.064 0.672,-0.034 1.344,-0.068 2.016,-0.102 0.135,2.688 0.271,5.377 0.406,8.065 z"
       id="path119"
       inkscape:connector-curvature="0"
       style="fill:#ffffff" /><path
       d="m 42.058,158.453 c -0.659,0.134 -1.319,0.269 -1.978,0.404 -0.538,-2.638 -1.076,-5.275 -1.614,-7.912 0.66,-0.135 1.319,-0.271 1.978,-0.404 0.537,2.637 1.076,5.275 1.614,7.912 z"
       id="path121"
       inkscape:connector-curvature="0"
       style="fill:#ffffff" /><path
       d="m 46.703,171.703 c -0.631,0.23 -1.264,0.461 -1.896,0.692 -0.922,-2.529 -1.845,-5.058 -2.768,-7.586 0.632,-0.231 1.264,-0.462 1.896,-0.692 0.922,2.528 1.845,5.057 2.768,7.586 z"
       id="path123"
       inkscape:connector-curvature="0"
       style="fill:#ffffff" /><path
       d="m 53.314,184.095 c -0.592,0.32 -1.183,0.64 -1.775,0.96 -1.282,-2.367 -2.563,-4.734 -3.844,-7.101 0.592,-0.32 1.184,-0.641 1.775,-0.961 1.282,2.367 2.564,4.734 3.844,7.102 z"
       id="path125"
       inkscape:connector-curvature="0"
       style="fill:#ffffff" /><path
       d="m 61.729,195.348 c -0.539,0.402 -1.079,0.804 -1.618,1.206 -1.609,-2.158 -3.217,-4.317 -4.825,-6.475 0.539,-0.402 1.079,-0.804 1.619,-1.206 1.609,2.158 3.217,4.316 4.824,6.475 z"
       id="path127"
       inkscape:connector-curvature="0"
       style="fill:#ffffff" /><path
       d="m 71.75,205.209 c -0.477,0.474 -0.954,0.949 -1.43,1.425 -1.9,-1.907 -3.8,-3.813 -5.7,-5.722 0.477,-0.474 0.954,-0.949 1.43,-1.424 1.901,1.907 3.801,3.814 5.7,5.721 z"
       id="path129"
       inkscape:connector-curvature="0"
       style="fill:#ffffff" /><path
       d="m 83.233,213.246 c -0.378,0.557 -0.755,1.114 -1.133,1.671 -2.228,-1.511 -4.455,-3.021 -6.683,-4.531 0.378,-0.558 0.755,-1.115 1.133,-1.672 2.227,1.511 4.455,3.022 6.683,4.532 z"
       id="path131"
       inkscape:connector-curvature="0"
       style="fill:#ffffff" /><path
       d="m 95.746,219.614 c -0.293,0.606 -0.586,1.212 -0.879,1.818 -2.423,-1.172 -4.846,-2.343 -7.27,-3.515 0.293,-0.606 0.586,-1.212 0.879,-1.817 2.422,1.171 4.845,2.343 7.27,3.514 z"
       id="path133"
       inkscape:connector-curvature="0"
       style="fill:#ffffff" /><path
       d="m 109.085,223.991 c -0.201,0.643 -0.401,1.285 -0.601,1.928 -2.57,-0.802 -5.139,-1.604 -7.709,-2.405 0.2,-0.643 0.401,-1.285 0.601,-1.928 2.57,0.802 5.14,1.604 7.709,2.405 z"
       id="path135"
       inkscape:connector-curvature="0"
       style="fill:#ffffff" /><path
       d="m 122.939,226.267 c -0.102,0.665 -0.204,1.33 -0.305,1.995 -2.661,-0.408 -5.322,-0.816 -7.982,-1.224 0.102,-0.665 0.203,-1.33 0.306,-1.995 2.661,0.408 5.321,0.816 7.981,1.224 z"
       id="path137"
       inkscape:connector-curvature="0"
       style="fill:#ffffff" /><path
       d="m 191.597,251.064 c 0.482,-0.469 0.964,-0.939 1.446,-1.408 1.878,1.928 3.755,3.857 5.633,5.786 -0.481,0.469 -0.964,0.939 -1.445,1.408 -1.879,-1.929 -3.757,-3.857 -5.634,-5.786 z"
       id="path139"
       inkscape:connector-curvature="0"
       style="fill:#ffffff" /><path
       d="m 180.323,242.714 c 0.395,-0.544 0.789,-1.09 1.183,-1.635 2.183,1.577 4.363,3.155 6.543,4.732 -0.394,0.546 -0.788,1.091 -1.183,1.636 -2.182,-1.577 -4.363,-3.155 -6.543,-4.733 z"
       id="path141"
       inkscape:connector-curvature="0"
       style="fill:#ffffff" /><path
       d="m 167.944,236.082 c 0.311,-0.597 0.621,-1.194 0.932,-1.791 2.388,1.241 4.776,2.483 7.164,3.725 -0.311,0.597 -0.621,1.194 -0.931,1.791 -2.389,-1.241 -4.776,-2.483 -7.165,-3.725 z"
       id="path143"
       inkscape:connector-curvature="0"
       style="fill:#ffffff" /><path
       d="m 154.699,231.404 c 0.22,-0.636 0.439,-1.272 0.66,-1.908 2.544,0.881 5.087,1.761 7.631,2.641 -0.221,0.636 -0.44,1.272 -0.66,1.908 -2.544,-0.881 -5.088,-1.761 -7.631,-2.641 z"
       id="path145"
       inkscape:connector-curvature="0"
       style="fill:#ffffff" /><path
       d="m 140.891,228.795 c 0.125,-0.662 0.25,-1.323 0.374,-1.984 2.646,0.498 5.29,0.997 7.937,1.496 -0.124,0.661 -0.249,1.322 -0.374,1.984 -2.646,-0.499 -5.29,-0.998 -7.937,-1.496 z"
       id="path147"
       inkscape:connector-curvature="0"
       style="fill:#ffffff" /><rect
       x="130.211"
       y="225.036"
       transform="matrix(-0.0382,0.9993,-0.9993,-0.0382,365.1409,106.7025)"
       width="2.0190001"
       height="8.0749998"
       id="rect149"
       style="fill:#ffffff" /><rect
       x="222.75999"
       y="539.18597"
       width="2.0190001"
       height="8.0749998"
       id="rect151"
       style="fill:#ffffff" /><path
       d="m 219.34,563.76 c 0.669,0.068 1.339,0.137 2.008,0.204 0.272,-2.678 0.543,-5.355 0.815,-8.034 -0.669,-0.067 -1.339,-0.136 -2.008,-0.204 -0.272,2.678 -0.543,5.356 -0.815,8.034 z"
       id="path153"
       inkscape:connector-curvature="0"
       style="fill:#ffffff" /><path
       d="m 215.378,577.202 c 0.642,0.2 1.285,0.398 1.927,0.598 0.799,-2.569 1.597,-5.141 2.396,-7.712 -0.644,-0.199 -1.286,-0.398 -1.929,-0.598 -0.799,2.57 -1.597,5.141 -2.394,7.712 z"
       id="path155"
       inkscape:connector-curvature="0"
       style="fill:#ffffff" /><path
       d="m 209.588,589.989 c 0.606,0.292 1.213,0.583 1.819,0.875 1.166,-2.427 2.332,-4.853 3.498,-7.279 -0.606,-0.291 -1.213,-0.582 -1.819,-0.874 -1.166,2.426 -2.332,4.852 -3.498,7.278 z"
       id="path157"
       inkscape:connector-curvature="0"
       style="fill:#ffffff" /><path
       d="m 201.92,601.753 c 0.559,0.376 1.117,0.752 1.675,1.127 1.503,-2.231 3.007,-4.464 4.512,-6.697 -0.559,-0.376 -1.116,-0.751 -1.675,-1.128 -1.504,2.233 -3.008,4.465 -4.512,6.698 z"
       id="path159"
       inkscape:connector-curvature="0"
       style="fill:#ffffff" /><path
       d="m 192.56,612.227 c 0.499,0.452 0.997,0.904 1.496,1.356 1.809,-1.995 3.615,-3.99 5.423,-5.984 -0.498,-0.451 -0.997,-0.903 -1.496,-1.355 -1.808,1.994 -3.614,3.988 -5.423,5.983 z"
       id="path161"
       inkscape:connector-curvature="0"
       style="fill:#ffffff" /><path
       d="m 181.723,621.173 c 0.43,0.52 0.859,1.037 1.288,1.556 2.073,-1.717 4.147,-3.433 6.222,-5.148 -0.431,-0.52 -0.859,-1.037 -1.288,-1.556 -2.073,1.716 -4.148,3.432 -6.222,5.148 z"
       id="path163"
       inkscape:connector-curvature="0"
       style="fill:#ffffff" /><path
       d="m 169.653,628.377 c 0.35,0.575 0.701,1.149 1.051,1.724 2.298,-1.4 4.597,-2.801 6.895,-4.2 -0.35,-0.575 -0.699,-1.15 -1.05,-1.726 -2.299,1.401 -4.597,2.802 -6.896,4.202 z"
       id="path165"
       inkscape:connector-curvature="0"
       style="fill:#ffffff" /><path
       d="m 156.587,633.442 c 0.232,0.631 0.464,1.263 0.696,1.895 2.526,-0.927 5.054,-1.854 7.581,-2.782 -0.232,-0.632 -0.464,-1.264 -0.696,-1.895 -2.527,0.927 -5.053,1.854 -7.581,2.782 z"
       id="path167"
       inkscape:connector-curvature="0"
       style="fill:#ffffff" /><path
       d="m 142.918,636.62 c 0.136,0.66 0.271,1.319 0.406,1.978 2.637,-0.541 5.273,-1.081 7.911,-1.621 -0.137,-0.658 -0.271,-1.318 -0.406,-1.978 -2.636,0.541 -5.274,1.081 -7.911,1.621 z"
       id="path169"
       inkscape:connector-curvature="0"
       style="fill:#ffffff" /><path
       d="m 128.925,637.673 c 0.034,0.672 0.069,1.345 0.102,2.017 2.689,-0.137 5.377,-0.272 8.065,-0.409 -0.034,-0.672 -0.068,-1.345 -0.102,-2.017 -2.689,0.136 -5.377,0.273 -8.065,0.409 z"
       id="path171"
       inkscape:connector-curvature="0"
       style="fill:#ffffff" /><path
       d="m 114.933,636.611 c -0.068,0.669 -0.135,1.339 -0.203,2.008 2.678,0.271 5.356,0.543 8.034,0.812 0.068,-0.669 0.136,-1.338 0.203,-2.008 -2.678,-0.27 -5.356,-0.541 -8.034,-0.812 z"
       id="path173"
       inkscape:connector-curvature="0"
       style="fill:#ffffff" /><path
       d="m 101.261,633.439 c -0.167,0.651 -0.334,1.304 -0.502,1.955 2.607,0.67 5.214,1.339 7.822,2.008 0.167,-0.652 0.334,-1.305 0.502,-1.956 -2.607,-0.669 -5.214,-1.338 -7.822,-2.007 z"
       id="path175"
       inkscape:connector-curvature="0"
       style="fill:#ffffff" /><path
       d="m 88.23,628.217 c -0.261,0.62 -0.523,1.24 -0.784,1.86 2.48,1.046 4.96,2.092 7.441,3.137 0.261,-0.619 0.522,-1.239 0.784,-1.858 -2.48,-1.048 -4.96,-2.093 -7.441,-3.139 z"
       id="path177"
       inkscape:connector-curvature="0"
       style="fill:#ffffff" /><path
       d="m 76.142,621.07 c -0.348,0.574 -0.697,1.15 -1.045,1.727 2.302,1.395 4.604,2.789 6.906,4.184 0.349,-0.576 0.698,-1.151 1.046,-1.728 -2.302,-1.394 -4.605,-2.789 -6.907,-4.183 z"
       id="path179"
       inkscape:connector-curvature="0"
       style="fill:#ffffff" /><path
       d="m 65.269,612.174 c -0.428,0.52 -0.856,1.039 -1.283,1.56 2.079,1.71 4.158,3.42 6.236,5.129 0.428,-0.52 0.856,-1.039 1.283,-1.559 -2.08,-1.711 -4.158,-3.421 -6.236,-5.13 z"
       id="path181"
       inkscape:connector-curvature="0"
       style="fill:#ffffff" /><path
       d="m 55.855,601.735 c -0.497,0.454 -0.994,0.906 -1.492,1.36 1.814,1.989 3.628,3.978 5.442,5.967 0.497,-0.453 0.994,-0.907 1.491,-1.36 -1.814,-1.989 -3.627,-3.978 -5.441,-5.967 z"
       id="path183"
       inkscape:connector-curvature="0"
       style="fill:#ffffff" /><path
       d="m 48.126,589.989 c -0.557,0.377 -1.114,0.755 -1.671,1.132 1.51,2.229 3.02,4.457 4.53,6.685 0.557,-0.377 1.114,-0.755 1.671,-1.133 -1.51,-2.228 -3.019,-4.456 -4.53,-6.684 z"
       id="path185"
       inkscape:connector-curvature="0"
       style="fill:#ffffff" /><path
       d="m 42.505,577.147 c -0.619,0.263 -1.239,0.525 -1.859,0.787 1.052,2.479 2.103,4.956 3.154,7.436 0.619,-0.263 1.239,-0.526 1.858,-0.789 -1.051,-2.478 -2.101,-4.956 -3.153,-7.434 z"
       id="path187"
       inkscape:connector-curvature="0"
       style="fill:#ffffff" /><path
       d="m 38.725,563.629 c -0.651,0.168 -1.303,0.337 -1.955,0.505 0.673,2.606 1.345,5.212 2.017,7.819 0.651,-0.168 1.303,-0.336 1.955,-0.504 -0.674,-2.607 -1.346,-5.213 -2.017,-7.82 z"
       id="path189"
       inkscape:connector-curvature="0"
       style="fill:#ffffff" /><path
       d="m 37.062,549.692 c -0.67,0.067 -1.339,0.137 -2.008,0.204 0.272,2.679 0.545,5.355 0.818,8.033 0.669,-0.067 1.339,-0.137 2.008,-0.205 -0.273,-2.676 -0.546,-5.354 -0.818,-8.032 z"
       id="path191"
       inkscape:connector-curvature="0"
       style="fill:#ffffff" /><path
       d="m 37.523,535.663 c -0.672,-0.033 -1.344,-0.067 -2.016,-0.101 -0.136,2.688 -0.271,5.375 -0.406,8.064 0.672,0.034 1.344,0.068 2.016,0.102 0.135,-2.688 0.271,-5.376 0.406,-8.065 z"
       id="path193"
       inkscape:connector-curvature="0"
       style="fill:#ffffff" /><path
       d="m 40.095,521.864 c -0.659,-0.134 -1.319,-0.27 -1.978,-0.403 -0.538,2.637 -1.076,5.275 -1.613,7.912 0.659,0.135 1.318,0.269 1.977,0.404 0.538,-2.638 1.076,-5.275 1.614,-7.913 z"
       id="path195"
       inkscape:connector-curvature="0"
       style="fill:#ffffff" /><path
       d="m 44.741,508.615 c -0.633,-0.23 -1.265,-0.461 -1.897,-0.692 -0.922,2.529 -1.845,5.058 -2.768,7.586 0.632,0.23 1.264,0.461 1.896,0.692 0.924,-2.529 1.845,-5.057 2.769,-7.586 z"
       id="path197"
       inkscape:connector-curvature="0"
       style="fill:#ffffff" /><path
       d="m 51.352,496.223 c -0.592,-0.319 -1.183,-0.641 -1.775,-0.961 -1.281,2.367 -2.563,4.734 -3.844,7.103 0.591,0.319 1.184,0.64 1.775,0.961 1.282,-2.369 2.562,-4.736 3.844,-7.103 z"
       id="path199"
       inkscape:connector-curvature="0"
       style="fill:#ffffff" /><path
       d="m 59.768,484.97 c -0.54,-0.401 -1.08,-0.804 -1.619,-1.206 -1.609,2.158 -3.217,4.316 -4.825,6.476 0.539,0.401 1.079,0.804 1.619,1.206 1.607,-2.159 3.216,-4.317 4.825,-6.476 z"
       id="path201"
       inkscape:connector-curvature="0"
       style="fill:#ffffff" /><path
       d="m 69.788,475.109 c -0.476,-0.476 -0.953,-0.95 -1.43,-1.426 -1.9,1.907 -3.8,3.814 -5.7,5.722 0.477,0.475 0.954,0.95 1.431,1.425 1.898,-1.907 3.799,-3.814 5.699,-5.721 z"
       id="path203"
       inkscape:connector-curvature="0"
       style="fill:#ffffff" /><path
       d="m 81.271,467.071 c -0.377,-0.557 -0.755,-1.113 -1.133,-1.67 -2.227,1.51 -4.455,3.021 -6.683,4.53 0.377,0.558 0.755,1.114 1.132,1.672 2.227,-1.51 4.455,-3.021 6.684,-4.532 z"
       id="path205"
       inkscape:connector-curvature="0"
       style="fill:#ffffff" /><path
       d="m 93.783,460.703 c -0.293,-0.606 -0.586,-1.212 -0.879,-1.817 -2.423,1.171 -4.846,2.343 -7.27,3.515 0.293,0.605 0.586,1.212 0.879,1.817 2.423,-1.172 4.846,-2.343 7.27,-3.515 z"
       id="path207"
       inkscape:connector-curvature="0"
       style="fill:#ffffff" /><path
       d="m 107.123,456.326 c -0.201,-0.643 -0.401,-1.285 -0.601,-1.927 -2.57,0.802 -5.139,1.603 -7.709,2.404 0.2,0.643 0.401,1.285 0.601,1.928 2.569,-0.801 5.138,-1.603 7.709,-2.405 z"
       id="path209"
       inkscape:connector-curvature="0"
       style="fill:#ffffff" /><path
       d="m 120.978,454.051 c -0.103,-0.665 -0.204,-1.33 -0.307,-1.996 -2.66,0.409 -5.321,0.816 -7.981,1.225 0.102,0.666 0.204,1.331 0.306,1.996 2.659,-0.409 5.32,-0.817 7.982,-1.225 z"
       id="path211"
       inkscape:connector-curvature="0"
       style="fill:#ffffff" /><path
       d="m 189.634,429.254 c 0.482,0.469 0.964,0.938 1.446,1.408 1.878,-1.929 3.756,-3.857 5.633,-5.786 -0.481,-0.47 -0.964,-0.938 -1.446,-1.408 -1.878,1.928 -3.756,3.857 -5.633,5.786 z"
       id="path213"
       inkscape:connector-curvature="0"
       style="fill:#ffffff" /><path
       d="m 178.36,437.604 c 0.395,0.545 0.789,1.09 1.183,1.636 2.181,-1.578 4.362,-3.155 6.544,-4.733 -0.395,-0.545 -0.79,-1.09 -1.184,-1.636 -2.182,1.577 -4.362,3.154 -6.543,4.733 z"
       id="path215"
       inkscape:connector-curvature="0"
       style="fill:#ffffff" /><path
       d="m 165.981,444.236 c 0.311,0.597 0.62,1.193 0.932,1.791 2.388,-1.242 4.775,-2.484 7.164,-3.726 -0.311,-0.597 -0.621,-1.194 -0.932,-1.791 -2.388,1.242 -4.775,2.484 -7.164,3.726 z"
       id="path217"
       inkscape:connector-curvature="0"
       style="fill:#ffffff" /><path
       d="m 152.736,448.913 c 0.22,0.636 0.439,1.271 0.659,1.908 2.545,-0.88 5.088,-1.761 7.632,-2.642 -0.221,-0.635 -0.44,-1.271 -0.66,-1.906 -2.544,0.88 -5.087,1.76 -7.631,2.64 z"
       id="path219"
       inkscape:connector-curvature="0"
       style="fill:#ffffff" /><path
       d="m 138.929,451.523 c 0.124,0.661 0.249,1.322 0.374,1.983 2.646,-0.499 5.29,-0.997 7.936,-1.496 -0.125,-0.661 -0.249,-1.321 -0.374,-1.983 -2.646,0.499 -5.291,0.997 -7.936,1.496 z"
       id="path221"
       inkscape:connector-curvature="0"
       style="fill:#ffffff" /><rect
       x="129.02499"
       y="448.522"
       transform="matrix(0.0385,-0.9993,0.9993,0.0385,-327.1898,565.0959)"
       width="2.0190001"
       height="8.0749998"
       id="rect223"
       style="fill:#ffffff" /><path
       stroke-miterlimit="22.9256"
       d="m 260.343,58.46 0,0 c 0,10e-4 0,10e-4 0,0 l 0,0 z m 0,10e-4 0,0 0,0 0,0 z"
       id="path225"
       inkscape:connector-curvature="0"
       style="fill:#ffffff;stroke:#000000;stroke-width:0.19850001;stroke-miterlimit:22.92560005" /><rect
       x="256.03699"
       y="307.10101"
       width="4.0300002"
       height="8.0749998"
       id="rect227"
       style="fill:#ffffff" /><rect
       x="256.03699"
       y="290.35699"
       width="4.0300002"
       height="8.0749998"
       id="rect229"
       style="fill:#ffffff" /><rect
       x="256.03699"
       y="278.83899"
       width="4.0300002"
       height="8.0749998"
       id="rect231"
       style="fill:#ffffff" /><rect
       x="256.03699"
       y="264.707"
       width="4.0300002"
       height="8.0749998"
       id="rect233"
       style="fill:#ffffff" /><rect
       x="256.03699"
       y="250.576"
       width="4.0300002"
       height="8.0749998"
       id="rect235"
       style="fill:#ffffff" /><rect
       x="256.03699"
       y="236.444"
       width="4.0300002"
       height="8.0749998"
       id="rect237"
       style="fill:#ffffff" /><rect
       x="256.03699"
       y="222.312"
       width="4.0300002"
       height="8.0749998"
       id="rect239"
       style="fill:#ffffff" /><rect
       x="256.03699"
       y="208.181"
       width="4.0300002"
       height="8.0749998"
       id="rect241"
       style="fill:#ffffff" /><rect
       x="256.03699"
       y="194.049"
       width="4.0300002"
       height="8.0749998"
       id="rect243"
       style="fill:#ffffff" /><rect
       x="256.03699"
       y="179.918"
       width="4.0300002"
       height="8.0749998"
       id="rect245"
       style="fill:#ffffff" /><rect
       x="256.03699"
       y="165.78799"
       width="4.0300002"
       height="8.0749998"
       id="rect247"
       style="fill:#ffffff" /><rect
       x="256.03699"
       y="151.65601"
       width="4.0300002"
       height="8.0749998"
       id="rect249"
       style="fill:#ffffff" /><rect
       x="256.02899"
       y="138.528"
       width="4.0300002"
       height="8.0749998"
       id="rect251"
       style="fill:#ffffff" /><path
       d="m 294.317,166.396 -34.329,-40.375 v 0.274 C 257.379,57.243 200.584,2.138 130.891,2.138 59.535,2.138 1.689,59.984 1.689,131.34 c 0,71.356 57.845,129.201 129.201,129.201 31.219,0 56.526,25.308 56.526,56.526 l 0.066,43.276 c 0,31.22 -25.308,56.764 -56.525,56.764 -71.356,0 -129.202,57.846 -129.202,129.201 0,71.356 57.846,129.202 129.202,129.202 71.355,0 129.201,-57.846 129.201,-129.202 l -0.05,-197.178 -0.002,-21.239 34.21,-40.368 V 166.396 z m -2.811,118.704 -35.419,39.786 v 221.357 c 0,69.127 -56.037,125.164 -125.164,125.164 -69.126,0 -125.164,-56.037 -125.164,-125.164 0,-69.126 56.038,-125.164 125.164,-125.164 33.448,0 60.564,-26.851 60.564,-60.299 v -43.454 c 0,-33.449 -27.116,-60.564 -60.564,-60.564 C 61.797,256.762 5.759,200.725 5.759,131.598 5.759,62.472 61.797,6.434 130.923,6.434 c 68.061,0 123.433,54.323 125.124,121.975 l 35.459,40.41 V 285.1 z"
       id="path253"
       inkscape:connector-curvature="0"
       style="fill:#ffffff" /><path
       d="m 130.935,70.406 c -33.448,0 -60.563,27.115 -60.563,60.562 0,33.448 27.115,60.563 60.563,60.563 21.977,0 42.613,5.655 60.564,15.602 v -76.165 c 0,-33.447 -27.116,-60.562 -60.564,-60.562 z m 0,117.089 c -31.218,0 -56.525,-25.308 -56.525,-56.526 0,-31.218 25.307,-56.525 56.525,-56.525 31.219,0 56.526,25.307 56.526,56.525 l 0.017,69.522 c -17.124,-8.38 -36.194,-12.996 -56.543,-12.996 z"
       id="path255"
       inkscape:connector-curvature="0"
       style="fill:#ffffff" /><path
       d="m 130.963,487.72 c -33.448,0 -60.563,27.115 -60.563,60.563 0,33.448 27.115,60.562 60.563,60.562 33.448,0 60.564,-27.114 60.564,-60.562 v -76.165 c -17.95,9.948 -38.587,15.602 -60.564,15.602 z m 56.527,60.563 c 0,31.219 -25.308,56.525 -56.526,56.525 -31.218,0 -56.526,-25.307 -56.526,-56.525 0,-31.218 25.308,-56.526 56.526,-56.526 20.35,0 39.419,-4.616 56.542,-12.996 l -0.016,69.522 z"
       id="path257"
       inkscape:connector-curvature="0"
       style="fill:#ffffff" /></g></svg>